<svg width="36" height="46" viewBox="0 0 36 46" fill="none" xmlns="http://www.w3.org/2000/svg">
<path d="M29.294 16.5208C29.0194 16.362 28.7386 16.198 28.4524 16.0209L28.4533 13.7377H28.4542C28.9802 13.7377 29.4054 13.3238 29.4054 12.8118V7.25774C29.4054 3.68495 26.4188 0.777771 22.7484 0.777771H12.2882C11.2388 0.777771 10.3865 1.60827 10.3865 2.62882H8.48402C7.4347 2.62882 6.5824 3.46019 6.5824 4.48074V6.33178C6.5824 7.35233 7.4347 8.18283 8.48402 8.18283H10.3856C10.3856 9.20338 11.2379 10.0339 12.2873 10.0339H13.3633L10.5452 14.1491C10.35 14.4328 10.3313 14.7982 10.4989 15.0993C10.6638 15.4004 10.9856 15.5879 11.3369 15.5879H13.2385C13.4445 15.5879 13.6451 15.5228 13.8091 15.403L19.8955 10.9598V12.8118C19.8955 13.3238 20.3208 13.7377 20.8468 13.7377V16.027L20.747 16.0947C17.229 18.4274 14.1907 20.4442 14.1907 35.0287V41.5086C14.1907 43.5506 15.8979 45.2116 17.9948 45.2116H31.308C33.4048 45.2116 35.1121 43.5506 35.1121 41.5086V35.0287C35.1112 20.6334 32.9011 18.6174 29.294 16.5208ZM10.3865 6.33178H8.48402V4.48074H10.3856L10.3865 6.33178ZM13.3063 13.4565L15.6501 10.0339H17.9948L13.3063 13.4565ZM12.2882 8.18283V2.62882H22.7484C25.3713 2.62882 27.5029 4.7055 27.5029 7.25687V11.8858H21.7972V9.10879C21.7972 8.59678 21.3719 8.18283 20.8459 8.18283H12.2882ZM21.8168 17.6238L22.3383 17.2758C22.5969 17.1031 22.7484 16.8185 22.7484 16.5147V13.7377H26.5526L26.5508 16.5156C26.5508 16.8202 26.7032 17.104 26.9609 17.2775C27.4236 17.5891 27.8765 17.8546 28.3187 18.1106C30.5537 19.4097 32.4028 20.4954 33.0028 28.5478H16.3464C17.0632 20.7774 19.218 19.3473 21.8168 17.6238ZM33.2096 41.5069C33.2096 42.5275 32.3573 43.358 31.308 43.358H17.9939C16.9446 43.358 16.0923 42.5275 16.0923 41.5069V39.6559H33.2096V41.5069ZM33.2096 37.8048H16.0923V35.0278C16.0923 33.3 16.1342 31.7683 16.2118 30.3997H33.1142C33.1766 31.7666 33.2096 33.2982 33.2096 35.0278V37.8048Z" fill="white"/>
<path d="M4.68072 5.40582C4.68072 4.89381 4.25547 4.47986 3.72947 4.47986H1.82784C1.30184 4.48073 0.876587 4.89467 0.876587 5.40582C0.876587 5.91783 1.30184 6.33178 1.82784 6.33178H3.72947C4.25547 6.33178 4.68072 5.91783 4.68072 5.40582Z" fill="white"/>
<path d="M2.35295 2.53162L4.25279 3.45758C4.38919 3.52353 4.5354 3.55477 4.67894 3.55477C5.02663 3.55477 5.36274 3.36733 5.52945 3.04276C5.76303 2.58629 5.57403 2.02916 5.10419 1.80092L3.20346 0.874962C2.74165 0.650198 2.16394 0.831571 1.92769 1.28978C1.69411 1.74625 1.88311 2.30252 2.35295 2.53162Z" fill="white"/>
<path d="M4.25549 7.35494L2.35297 8.2809C1.88314 8.51 1.69324 9.06541 1.92772 9.52274C2.09532 9.84731 2.43143 10.0348 2.77823 10.0348C2.92087 10.0348 3.06619 10.0035 3.20349 9.93756L5.10511 9.0116C5.57495 8.7825 5.76484 8.2271 5.53037 7.76976C5.29501 7.31155 4.72711 7.12931 4.25549 7.35494Z" fill="white"/>
</svg>
