<svg width="788" height="528" viewBox="0 0 788 528" fill="none" xmlns="http://www.w3.org/2000/svg">
<path d="M2.81563 221.784L113.574 660.793C129.138 722.484 189.18 762.124 252.024 752.198L719.433 678.379C790.824 667.104 837.152 596.999 819.535 526.904L710.586 93.4209C694.733 30.3458 632.517 -9.48697 568.597 2.5151L483.603 18.4742C413.135 31.7058 368.876 102.161 387.544 171.387L495.315 571.02C501.177 592.76 509.476 611.536 497.401 630.541V630.541C483.753 652.022 451.474 606.053 444.774 581.501L332.817 171.227C315.992 109.57 254.751 71.072 191.895 82.6385L80.4306 103.15C25.4263 113.272 -9.94081 167.33 2.81563 221.784V221.784Z" fill="#FFF2F6"/>
</svg>
