<svg width="24" height="22" viewBox="0 0 24 22" fill="none" xmlns="http://www.w3.org/2000/svg">
<path fill-rule="evenodd" clip-rule="evenodd" d="M4.61548 5.60771V18.1751C4.61548 18.7002 4.6162 19.0392 4.63756 19.2972C4.65805 19.5446 4.69283 19.6364 4.71609 19.6814C4.80458 19.8528 4.94579 19.9921 5.11948 20.0794C5.16512 20.1023 5.25809 20.1366 5.50885 20.1568C5.77039 20.1779 6.11402 20.1786 6.64622 20.1786H17.3538C17.886 20.1786 18.2296 20.1779 18.4911 20.1568C18.7419 20.1366 18.8349 20.1023 18.8805 20.0794C19.0542 19.9921 19.1954 19.8528 19.2839 19.6814C19.3072 19.6364 19.3419 19.5446 19.3624 19.2972C19.3838 19.0392 19.3845 18.7002 19.3845 18.1751V5.60771H21.2307V18.2103C21.2307 18.6903 21.2307 19.1045 21.2024 19.4456C21.1726 19.8056 21.1068 20.1637 20.9288 20.5083C20.6633 21.0223 20.2397 21.4403 19.7186 21.7022C19.3694 21.8778 19.0064 21.9427 18.6415 21.9722C18.2957 22 17.876 22 17.3894 22H6.61062C6.12404 22 5.70427 22 5.35852 21.9722C4.99359 21.9427 4.63062 21.8778 4.28135 21.7022C3.7603 21.4403 3.33666 21.0223 3.07117 20.5083C2.89321 20.1637 2.82738 19.8056 2.79756 19.4456C2.76931 19.1044 2.76933 18.6903 2.76935 18.2102L2.76935 5.60771H4.61548Z" fill="white"/>
<path fill-rule="evenodd" clip-rule="evenodd" d="M10.6783 13.8039C10.6881 13.8039 10.6979 13.8039 10.7077 13.8039H13.2923C13.3021 13.8039 13.3119 13.8039 13.3217 13.8039C13.5547 13.8038 13.7816 13.8038 13.9737 13.8193C14.1847 13.8363 14.4337 13.8764 14.6843 14.0024C15.0316 14.177 15.3141 14.4556 15.491 14.7983C15.6187 15.0455 15.6594 15.2912 15.6766 15.4993C15.6923 15.6889 15.6923 15.9127 15.6923 16.1426C15.6923 16.1523 15.6923 16.1619 15.6923 16.1716V22H8.30774V16.1716C8.30774 16.1619 8.30774 16.1523 8.30774 16.1426C8.30771 15.9127 8.30768 15.6889 8.32338 15.4993C8.34062 15.2912 8.3813 15.0455 8.50896 14.7983C8.68595 14.4556 8.96837 14.177 9.31574 14.0024C9.56629 13.8764 9.81527 13.8363 10.0263 13.8193C10.2184 13.8038 10.4453 13.8038 10.6783 13.8039ZM10.1644 15.6356C10.1641 15.6394 10.1637 15.6434 10.1634 15.6477C10.1546 15.7538 10.1539 15.9016 10.1539 16.1716V20.1786H13.8461V16.1716C13.8461 15.9016 13.8454 15.7538 13.8366 15.6477C13.8363 15.6434 13.8359 15.6394 13.8356 15.6356C13.8317 15.6353 13.8277 15.635 13.8234 15.6346C13.7158 15.6259 13.566 15.6252 13.2923 15.6252H10.7077C10.434 15.6252 10.2842 15.6259 10.1766 15.6346C10.1723 15.635 10.1683 15.6353 10.1644 15.6356Z" fill="white"/>
<path fill-rule="evenodd" clip-rule="evenodd" d="M0.125891 7.88795C0.382762 8.32239 0.947971 8.46913 1.38832 8.21571L12 2.1086L22.6117 8.21571C23.052 8.46913 23.6172 8.32239 23.8741 7.88795C24.131 7.4535 23.9822 6.89588 23.5419 6.64245L12 0L0.45811 6.64245C0.0177596 6.89588 -0.13098 7.4535 0.125891 7.88795Z" fill="white"/>
</svg>
