<svg width="705" height="390" viewBox="0 0 705 390" fill="none" xmlns="http://www.w3.org/2000/svg">
<g clip-path="url(#clip0_110_19)">
<path d="M532.538 249.482C551.151 260.222 553.163 276.484 537.055 285.792L400.644 364.566C384.519 373.874 356.378 372.697 337.765 361.958L20.2495 178.618C2.23292 168.219 -0.238607 152.655 14.2326 143.229C-5.38621 155.69 -3.80102 178.396 13.2781 192.852C15.2553 194.574 17.5735 196.245 20.2495 197.779L337.765 381.119C356.378 391.858 384.519 393.034 400.644 383.727C400.644 383.727 538.044 304.373 538.521 304.066C562.486 289.116 553.845 260.989 532.538 249.482Z" fill="url(#paint0_linear_110_19)"/>
<path d="M537.055 285.792L400.644 364.566C384.519 373.874 356.378 372.697 337.765 361.958L20.2496 178.618C1.63638 167.878 -0.37494 151.615 15.7326 142.308L152.144 63.5339C168.269 54.2263 196.41 55.4025 215.023 66.1421L532.538 249.482C551.152 260.222 553.163 276.484 537.055 285.792Z" fill="url(#paint1_linear_110_19)"/>
<path d="M397.542 360.151C383.173 368.453 359.872 368.487 345.605 360.253L23.2154 174.083C8.93167 165.833 9.0169 152.383 23.3859 144.098L155.246 67.9491C169.615 59.6472 192.916 59.6131 207.183 67.8468L529.573 253.999C543.856 262.25 543.771 275.7 529.402 283.985L397.542 360.151Z" fill="url(#paint2_linear_110_19)"/>
<path d="M163.837 72.9095L147.508 82.3365C146.042 83.1888 146.025 84.5696 147.491 85.4049C152.553 88.337 152.536 93.0931 147.44 96.0422L72.0324 139.58C66.9359 142.529 58.6861 142.546 53.6238 139.614C52.1579 138.762 49.7716 138.779 48.3057 139.631L31.9766 149.058C22.3632 154.616 22.312 163.582 31.8743 169.105L354.264 355.258C363.809 360.781 379.355 360.747 388.968 355.19L520.828 279.041C530.442 273.484 530.493 264.517 520.931 258.994L198.541 72.8584C188.978 67.3352 173.45 67.3693 163.837 72.9095Z" fill="#EBF5F8" stroke="#072359" stroke-width="0.1956" stroke-miterlimit="10"/>
<path opacity="0.15" d="M518.254 275.717L383.207 353.707C376.781 357.423 365.565 356.946 358.133 352.667L340.39 342.422C332.975 338.143 332.157 331.665 338.583 327.949L473.631 249.959C480.057 246.243 491.272 246.72 498.704 250.999L516.448 261.244C523.879 265.54 524.68 272.018 518.254 275.717Z" fill="#0388A6"/>
<path d="M281.448 306.146L127.974 217.519L282.402 128.364L435.876 216.974L281.448 306.146Z" fill="#EBF5F8"/>
<path d="M242.773 168.969L237.83 171.816L242.756 174.646L247.682 171.799L242.773 168.969Z" fill="#072359"/>
<path d="M227.892 188.897L242.722 180.34L237.813 177.51L232.887 174.663L227.961 177.527L232.869 180.357L218.04 188.914L222.949 191.761L218.006 194.608L213.097 191.778L208.188 188.931L203.245 191.795L208.154 194.625L203.211 197.472L208.12 200.319L213.063 197.455L217.972 200.302L213.029 203.149L217.938 205.978L227.824 200.285L222.915 197.438L227.858 194.591L232.767 197.421L237.71 194.574L232.801 191.744L227.892 188.897Z" fill="#072359"/>
<path d="M242.687 186.033L237.744 188.88L242.653 191.727L247.596 188.863L242.687 186.033Z" fill="#072359"/>
<path d="M232.733 203.115L237.659 205.944L242.568 208.791L247.511 205.927L242.585 203.098L237.676 200.268L232.767 197.421L227.824 200.285L232.733 203.115Z" fill="#072359"/>
<path d="M237.71 194.574L242.619 197.404L247.562 194.557L242.653 191.727L237.71 194.574Z" fill="#072359"/>
<path d="M267.335 183.135L262.426 180.306L257.517 177.476L247.63 183.17L252.539 186.016L257.448 188.846L247.562 194.557L252.471 197.387L257.414 194.54L262.323 197.37L267.266 194.523L262.357 191.676L267.3 188.829L262.391 185.999L267.335 183.135Z" fill="#072359"/>
<path d="M232.716 208.808L227.79 205.961L222.864 208.825L227.773 211.655L232.682 214.502L237.625 211.638L232.716 208.808Z" fill="#072359"/>
<path d="M252.454 203.08L257.363 205.91L262.272 208.757L272.158 203.046L267.249 200.217L262.306 203.063L257.38 200.234L252.471 197.387L247.528 200.251L252.454 203.08Z" fill="#072359"/>
<path d="M277.153 188.812L272.244 185.982L267.3 188.829L272.209 191.659L277.118 194.506L282.061 191.642L277.153 188.812Z" fill="#072359"/>
<path d="M306.777 177.374L301.834 180.237L306.743 183.067L311.686 180.22L306.777 177.374Z" fill="#072359"/>
<path d="M311.72 174.527L316.629 177.357L321.572 174.51L316.663 171.68L311.72 174.527Z" fill="#072359"/>
<path d="M326.481 177.339L331.424 174.493L326.515 171.663L321.572 174.51L326.481 177.339Z" fill="#072359"/>
<path d="M311.618 191.591L316.561 188.744L311.652 185.897L306.743 183.067L301.8 185.931L296.891 183.084L291.948 185.948L296.857 188.778L301.766 191.608L306.709 188.761L311.618 191.591Z" fill="#072359"/>
<path d="M321.504 185.88L326.447 183.033L321.538 180.203L316.595 183.05L321.504 185.88Z" fill="#072359"/>
<path d="M301.749 197.301L306.692 194.455L301.766 191.608L296.823 194.472L291.914 191.625L287.005 188.795L282.061 191.642L286.97 194.489L282.027 197.335L277.118 194.506L272.175 197.352L277.101 200.182L282.01 203.029L262.238 214.434L267.147 217.28L262.204 220.127L257.295 217.297L252.386 214.451L257.329 211.604L252.42 208.774L227.705 223.042L232.614 225.872L247.443 217.314L252.352 220.144L237.523 228.702L242.432 231.549L252.318 225.838L257.227 228.668L262.17 225.821L267.079 228.651L272.005 231.498L267.062 234.344L271.971 237.174L276.914 234.327L281.823 237.157L291.709 231.446L286.8 228.617L281.857 231.48L276.948 228.634L281.874 225.787L276.965 222.94L272.022 225.804L267.113 222.957L272.056 220.11L276.965 222.94L281.908 220.093L276.999 217.263L272.09 214.416L291.862 203.012L286.953 200.165L291.896 197.318L296.805 200.148L291.862 203.012L296.771 205.842L306.658 200.131L301.749 197.301Z" fill="#072359"/>
<path d="M252.284 231.532L247.358 234.379L252.267 237.208L257.21 234.361L252.284 231.532Z" fill="#072359"/>
<path d="M286.885 211.553L291.794 214.383L301.68 208.672L296.771 205.842L286.885 211.553Z" fill="#072359"/>
<path d="M336.265 188.71L346.151 182.999L341.242 180.169L331.356 185.863L336.265 188.71Z" fill="#072359"/>
<path d="M291.76 220.076L286.851 217.246L281.908 220.093L286.817 222.923L291.76 220.076Z" fill="#072359"/>
<path d="M267.028 240.038L262.119 237.208L257.176 240.055L252.267 237.226L242.381 242.936L237.472 240.106L232.563 237.277L227.654 234.447L232.597 231.6L227.688 228.77L222.779 225.94L198.063 240.209L202.972 243.039L207.881 245.868L212.79 248.698L222.677 242.987L217.768 240.158L212.824 243.004L207.916 240.175L212.859 237.328L217.768 240.158L222.711 237.311L227.62 240.141L222.677 242.987L227.586 245.817L217.699 251.528L222.608 254.358L227.517 257.187L232.426 260.017L237.335 262.847L242.244 265.677L247.187 262.83L242.278 260L237.369 257.17L232.46 254.341L227.551 251.511L237.438 245.8L242.346 248.63L247.255 251.46L242.312 254.307L247.221 257.136L257.107 251.426L262.016 254.255L266.96 251.409L262.051 248.579L266.994 245.732L262.085 242.902L267.028 240.038ZM252.199 248.596L247.29 245.766L252.233 242.919L257.142 245.749L252.199 248.596Z" fill="#072359"/>
<path d="M301.646 214.365L296.703 217.229L301.612 220.059L306.521 222.889L311.464 220.042L306.555 217.212L301.646 214.365Z" fill="#072359"/>
<path d="M341.157 197.233L346.1 194.369L351.009 197.216L355.952 194.352L360.861 197.199L365.77 200.029L355.884 205.74L360.792 208.569L375.622 200.012L370.713 197.182L365.804 194.335L360.895 191.505L355.986 188.676L351.06 185.829L336.248 194.386L341.157 197.233Z" fill="#072359"/>
<path d="M271.971 237.174L267.028 240.038L271.937 242.868L266.994 245.715L271.903 248.562L281.789 242.851L286.698 245.681L291.607 248.527L296.55 245.664L291.641 242.834L296.584 239.987L291.675 237.14L286.732 240.004L281.823 237.157L276.88 240.021L271.971 237.174Z" fill="#072359"/>
<path d="M301.595 225.753L296.669 222.906L291.726 225.77L296.652 228.6L301.561 231.429L306.504 228.583L301.595 225.753Z" fill="#072359"/>
<path d="M316.356 228.566L321.265 231.395L326.174 234.242L331.117 231.378L326.208 228.548L321.299 225.719L316.39 222.872L311.447 225.736L316.356 228.566Z" fill="#072359"/>
<path d="M341.037 219.991L345.963 217.127L341.054 214.297L336.111 217.144L341.037 219.991Z" fill="#072359"/>
<path d="M350.94 208.586L346.031 205.757L350.975 202.91L346.066 200.08L326.293 211.501L321.384 208.672L326.327 205.825L321.418 202.995L326.362 200.148L331.27 202.978L336.214 200.131L331.305 197.301L326.396 194.472L331.339 191.625L326.43 188.795L306.657 200.216L311.566 203.046L301.68 208.757L306.589 211.587L311.532 208.74L316.441 211.57L321.35 214.399L311.464 220.11L316.373 222.94L321.316 220.093L326.225 222.923L331.134 225.753L336.043 228.582L340.952 231.412L336.009 234.259L340.918 237.089L350.804 231.378L345.895 228.548L350.838 225.702L355.747 228.531L360.69 225.685L355.781 222.855L360.724 220.008L365.633 222.838L370.542 225.667L350.77 237.089L355.679 239.919L385.337 222.804L380.428 219.974L375.485 222.821L370.576 219.991L365.667 217.161L370.61 214.314L365.701 211.484L360.792 208.655L355.849 211.501L350.94 208.586ZM355.832 217.11L341.003 225.667L336.094 222.838L331.185 220.008L326.276 217.178L341.105 208.621L346.014 211.45L350.923 214.28L355.832 217.11Z" fill="#072359"/>
<path d="M306.368 251.34L301.459 248.51L296.516 251.357L301.425 254.187L306.351 257.034L311.26 259.864L316.169 262.693L321.078 265.54L326.021 262.676L321.112 259.847L316.203 257.017L321.146 254.153L326.055 257L330.998 254.136L326.089 251.306L321.163 248.476L311.294 254.17L306.368 251.34Z" fill="#072359"/>
<path d="M326.14 239.919L321.231 237.089L316.288 239.936L311.379 237.106L316.322 234.259L311.413 231.412L301.527 237.123L306.436 239.953L311.345 242.8L306.402 245.647L311.311 248.493L321.197 242.783L326.106 245.612L331.015 248.442L335.941 251.289L340.867 248.425L335.958 245.595L345.844 239.885L340.935 237.055L331.049 242.766L326.14 239.919Z" fill="#072359"/>
<path d="M380.48 214.229L375.536 217.076L380.445 219.923L385.389 217.059L380.48 214.229Z" fill="#072359"/>
<path d="M390.332 214.212L395.275 211.348L390.349 208.518L385.44 205.688L375.553 211.382L380.48 214.229L385.406 211.365L390.332 214.212Z" fill="#072359"/>
<path d="M390.297 219.906L385.354 222.752L390.263 225.582L405.093 217.025L400.184 214.195L395.241 217.042L390.332 214.212L385.388 217.059L390.297 219.906Z" fill="#072359"/>
<path d="M350.736 248.408L345.81 245.578L340.867 248.425L345.793 251.272L350.736 248.408Z" fill="#072359"/>
<path d="M355.662 245.561L360.605 242.715L355.696 239.868L350.753 242.732L355.662 245.561Z" fill="#072359"/>
<path d="M222.83 214.519L217.921 211.689L213.012 208.859L208.103 206.029L203.194 203.2L198.285 200.37L193.376 197.54L158.775 217.519L163.684 220.349L168.593 223.179L173.502 226.008L178.411 228.838L183.32 231.668L188.228 234.498L193.137 237.328L227.739 217.349L222.83 214.519ZM193.172 231.634L188.263 228.804L183.354 225.974L178.445 223.145L173.536 220.315L168.627 217.485L193.342 203.217L198.251 206.046L203.16 208.876L208.069 211.706L212.978 214.536L217.887 217.366L193.172 231.634Z" fill="#072359"/>
<path d="M193.206 225.94L208.035 217.383L193.291 208.876L178.479 217.434L193.206 225.94Z" fill="#072359"/>
<path d="M247.716 166.105L252.625 168.935L257.534 171.765L262.443 174.595L267.352 177.425L272.261 180.254L277.17 183.084L282.079 185.914L316.68 165.935L311.771 163.105L306.862 160.275L301.953 157.446L297.044 154.616L292.135 151.786L287.226 148.956L282.317 146.126L247.716 166.105ZM287.192 154.667L292.101 157.497L297.01 160.327L301.919 163.156L306.828 165.986L282.113 180.254L277.204 177.425L272.295 174.595L267.386 171.765L262.477 168.935L257.568 166.105L282.283 151.837L287.192 154.667Z" fill="#072359"/>
<path d="M282.249 157.514L267.42 166.071L282.164 174.578L296.993 166.02L282.249 157.514Z" fill="#072359"/>
<path d="M252.079 271.353L256.988 274.183L261.897 277.013L266.806 279.843L271.715 282.673L276.624 285.502L281.533 288.332L316.134 268.353L311.225 265.523L306.317 262.694L301.408 259.864L296.499 257.034L291.59 254.204L286.681 251.374L281.772 248.545L247.17 268.524L252.079 271.353ZM281.721 254.221L286.63 257.051L291.538 259.881L296.447 262.711L301.356 265.54L306.265 268.37L281.55 282.639L276.641 279.809L271.732 276.979L266.823 274.149L261.914 271.319L257.005 268.49L281.721 254.221Z" fill="#072359"/>
<path d="M281.704 259.915L266.874 268.472L281.601 276.979L296.43 268.421L281.704 259.915Z" fill="#072359"/>
<path d="M161.519 227.219L157.206 229.725L136.054 217.519L157.326 205.228L161.621 207.717L144.678 217.502L161.519 227.219Z" fill="#00CBE7"/>
<path d="M303.521 145.223L299.209 147.729L282.351 137.995L265.408 147.78L261.113 145.308L282.385 133.017L303.521 145.223Z" fill="#00CBE7"/>
<path d="M427.797 216.991L406.524 229.265L402.229 226.793L419.172 217.008L402.331 207.274L406.661 204.785L427.797 216.991Z" fill="#00CBE7"/>
<path d="M302.737 289.185L281.465 301.476L260.329 289.27L264.658 286.781L281.499 296.498L298.442 286.713L302.737 289.185Z" fill="#00CBE7"/>
<path d="M416.956 295.219C410.598 298.884 410.564 304.851 416.888 308.499C423.211 312.147 433.524 312.13 439.881 308.464C446.239 304.799 446.273 298.833 439.95 295.185C433.626 291.537 423.314 291.554 416.956 295.219Z" fill="#F7FEFE"/>
<path d="M411.229 291.912C401.684 297.435 401.632 306.351 411.127 311.823C420.621 317.312 436.063 317.278 445.609 311.755C455.154 306.231 455.205 297.316 445.711 291.844C436.234 286.372 420.791 286.389 411.229 291.912ZM441.262 309.249C434.137 313.357 422.564 313.391 415.49 309.3C408.399 305.209 408.45 298.526 415.575 294.418C422.7 290.31 434.274 290.275 441.347 294.367C448.438 298.458 448.404 305.14 441.262 309.249Z" fill="#F7FEFE"/>
<path d="M139.105 142.103L139.173 130.017C139.173 129.557 140.247 129.403 140.605 129.83L146.332 136.58L150.218 134.347C150.712 134.057 151.565 134.262 151.548 134.671L151.479 146.757C151.479 147.217 150.406 147.371 150.048 146.945L144.32 140.194L140.434 142.427C139.957 142.7 139.105 142.495 139.105 142.103Z" fill="#5DE4E3"/>
<path d="M193.035 70.4721C183.729 67.523 171.763 68.3242 163.837 72.9098L147.508 82.3368C146.042 83.1891 146.025 84.5699 147.491 85.4052C152.553 88.3373 152.536 93.0934 147.44 96.0425L72.0324 139.58C66.9359 142.53 58.6861 142.547 53.6238 139.615C52.1579 138.762 49.7716 138.779 48.3057 139.632L31.9766 149.059C22.3632 154.616 22.312 163.583 31.8743 169.106L192.012 261.568L193.035 70.4721Z" fill="white" fill-opacity="0.4"/>
<path d="M354.537 183.834L224.057 259.182L268.255 284.701L398.735 209.354L354.537 183.834Z" fill="url(#paint3_linear_110_19)"/>
<path d="M90.7146 229.333C90.7146 228.6 90.2714 227.764 89.726 227.457L65.2493 213.326C65.0107 213.189 64.7891 213.189 64.6187 213.291L64.6016 213.274L62.5051 214.485L88.2772 231.344L90.3737 230.134L90.3567 230.117C90.5782 229.997 90.7146 229.742 90.7146 229.333Z" fill="url(#paint4_linear_110_19)"/>
<path d="M63.1689 217.161L87.6456 231.293C88.191 231.6 88.6342 231.276 88.6342 230.543C88.6342 229.81 88.191 228.975 87.6456 228.668L63.1689 214.536C62.6235 214.229 62.1803 214.553 62.1803 215.286C62.1803 216.002 62.6235 216.837 63.1689 217.161Z" fill="#00CBE7"/>
<path d="M124.004 248.545C124.004 247.811 123.56 246.976 123.015 246.669L98.5383 232.537C98.2996 232.401 98.078 232.401 97.9076 232.503L97.8905 232.486L95.794 233.697L121.566 250.556L123.663 249.346L123.646 249.329C123.867 249.226 124.004 248.954 124.004 248.545Z" fill="url(#paint5_linear_110_19)"/>
<path d="M96.4579 236.373L120.935 250.505C121.48 250.812 121.923 250.488 121.923 249.755C121.923 249.022 121.48 248.186 120.935 247.88L96.4579 233.748C95.9124 233.441 95.4692 233.765 95.4692 234.498C95.4692 235.214 95.9124 236.066 96.4579 236.373Z" fill="#00CBE7"/>
<path d="M481.949 163.583L487.25 164.623C487.693 164.708 488.17 164.657 488.528 164.503L493.028 162.56C493.948 162.168 495.278 162.543 495.261 163.225L495.193 166.464C495.193 166.736 495.414 166.975 495.789 167.128L500.357 169.004C501.295 169.396 501.073 170.231 499.965 170.436L494.613 171.39C494.17 171.475 493.829 171.663 493.693 171.919L492.022 175.004C491.681 175.635 490.215 175.771 489.551 175.226L486.312 172.584C486.039 172.362 485.613 172.243 485.153 172.243L479.545 172.277C478.386 172.277 477.721 171.527 478.403 170.981L481.761 168.39C482.034 168.185 482.119 167.896 481.966 167.657L480.159 164.589C479.801 163.975 480.858 163.378 481.949 163.583Z" fill="#D888A2"/>
<path d="M504.704 150.439L510.005 151.479C510.448 151.565 510.925 151.513 511.283 151.36L515.783 149.417C516.703 149.025 518.033 149.4 518.016 150.081L517.948 153.32C517.948 153.593 518.169 153.832 518.544 153.985L523.112 155.86C524.05 156.252 523.828 157.088 522.72 157.292L517.368 158.247C516.925 158.332 516.584 158.52 516.448 158.775L514.777 161.861C514.437 162.492 512.971 162.628 512.306 162.082L509.067 159.44C508.795 159.219 508.368 159.099 507.908 159.099L502.3 159.133C501.141 159.133 500.477 158.383 501.158 157.838L504.516 155.247C504.789 155.042 504.874 154.752 504.721 154.514L502.914 151.445C502.556 150.831 503.613 150.235 504.704 150.439Z" fill="#D888A2"/>
<path d="M527.476 137.296L532.777 138.336C533.22 138.421 533.697 138.37 534.055 138.217L538.555 136.273C539.476 135.881 540.805 136.256 540.788 136.938L540.72 140.177C540.72 140.45 540.941 140.688 541.316 140.842L545.885 142.717C546.822 143.109 546.6 143.944 545.492 144.149L540.14 145.104C539.697 145.189 539.356 145.376 539.22 145.632L537.549 148.718C537.209 149.348 535.743 149.485 535.078 148.939L531.839 146.297C531.567 146.075 531.141 145.956 530.68 145.956L525.073 145.99C523.913 145.99 523.249 145.24 523.931 144.694L527.288 142.103C527.561 141.899 527.646 141.609 527.493 141.37L525.686 138.302C525.328 137.688 526.368 137.092 527.476 137.296Z" fill="#D888A2"/>
<path d="M550.231 124.153L555.532 125.193C555.975 125.278 556.452 125.227 556.81 125.074L561.31 123.13C562.231 122.738 563.56 123.113 563.543 123.795L563.475 127.034C563.475 127.307 563.697 127.545 564.072 127.699L568.64 129.574C569.577 129.966 569.356 130.801 568.248 131.006L562.895 131.961C562.452 132.046 562.111 132.233 561.975 132.489L560.305 135.574C559.964 136.205 558.498 136.342 557.833 135.796L554.595 133.154C554.322 132.932 553.896 132.813 553.435 132.813L547.828 132.847C546.669 132.847 546.004 132.097 546.686 131.551L550.044 128.96C550.316 128.756 550.401 128.466 550.248 128.227L548.441 125.159C548.083 124.545 549.14 123.948 550.231 124.153Z" fill="#D888A2"/>
<path d="M572.986 111.027L578.287 112.067C578.73 112.152 579.208 112.101 579.566 111.947L584.065 110.004C584.986 109.612 586.315 109.987 586.298 110.669L586.23 113.908C586.23 114.181 586.452 114.419 586.827 114.573L591.395 116.448C592.332 116.84 592.111 117.675 591.003 117.88L585.651 118.834C585.207 118.92 584.867 119.107 584.73 119.363L583.06 122.448C582.719 123.079 581.253 123.215 580.588 122.67L577.35 120.028C577.077 119.806 576.651 119.687 576.191 119.687L570.583 119.721C569.424 119.721 568.759 118.971 569.441 118.425L572.799 115.834C573.071 115.629 573.157 115.34 573.003 115.101L571.196 112.033C570.838 111.402 571.895 110.805 572.986 111.027Z" fill="#D888A2"/>
<path d="M539.936 178.089C562.282 180.101 633.394 186.493 668.2 189.63C668.2 190.534 668.2 191.335 668.2 192.238L539.936 180.715V178.089Z" fill="#61B77C"/>
<path d="M691.245 68.0173C681.597 103.85 671.933 139.683 662.285 175.532C659.711 175.294 657.052 175.447 654.564 175.959C650.575 176.811 645.615 179.044 644.558 182.999C618.36 180.647 592.179 178.294 565.998 175.942C567.225 171.339 562.367 167.964 557.782 166.6C556.316 166.157 554.697 165.85 553.06 165.713C562.708 129.881 572.373 94.031 582.037 58.1983C586.639 58.6074 592.162 57.8233 596.048 55.2833C597.719 54.1923 599.235 52.658 599.747 50.7488C625.945 53.1013 652.126 55.4537 678.308 57.8062C677.762 59.8178 678.376 62.1532 680.864 64.25C683.591 66.5513 687.665 67.6764 691.245 68.0173ZM657.581 120.062C659.251 113.822 655.825 108.248 650.677 104.327C636.598 93.673 608.832 93.4173 594.224 103.867C588.599 107.907 584.849 113.788 586.776 120.334C589.162 128.483 598.826 133.444 606.974 135.643C616.621 138.251 627.786 138.234 637.433 135.608C645.683 133.341 655.365 128.261 657.581 120.062Z" fill="#61B77C"/>
<path d="M704.352 55.522V58.1472L668.2 192.238C668.2 191.233 668.2 190.534 668.2 189.63C668.37 189.034 704.114 56.4084 704.352 55.522Z" fill="#61B77C"/>
<path d="M650.678 104.31C655.825 108.231 659.251 113.823 657.581 120.045C655.365 128.244 645.666 133.324 637.434 135.575C627.803 138.2 616.639 138.217 606.974 135.609C598.827 133.41 589.145 128.449 586.776 120.3C584.833 113.754 588.599 107.873 594.224 103.833C608.849 93.4174 636.598 93.6561 650.678 104.31Z" fill="#96CBA3"/>
<path d="M644.541 182.999C645.598 179.061 650.575 176.828 654.547 175.959C657.035 175.43 659.694 175.294 662.268 175.533C671.916 139.683 681.58 103.85 691.228 68.0175C687.648 67.6765 683.574 66.5514 680.83 64.216C678.359 62.1363 677.745 59.7838 678.273 57.7723C652.092 55.4198 625.911 53.0673 599.713 50.7148L600.122 46.1462L704.335 55.505C704.097 56.3915 668.524 188.386 668.183 189.613L565.572 180.391L565.964 175.942C592.162 178.294 618.343 180.664 644.541 182.999Z" fill="#96CBA3"/>
<path d="M600.139 46.1632L599.73 50.7318C599.201 52.641 597.701 54.1753 596.031 55.2663C592.145 57.8233 586.622 58.5904 582.02 58.1813C572.338 94.014 562.691 129.864 553.043 165.696C554.68 165.85 556.299 166.14 557.765 166.583C562.367 167.947 567.208 171.322 565.981 175.925L565.589 180.374L539.936 178.072L576.088 43.9812L600.139 46.1632Z" fill="#96CBA3"/>
<path d="M668.2 189.63V192.238L669.546 191.693C669.546 191.693 704.915 60.3974 705 59.9542C705.034 59.7497 704.352 55.5391 704.352 55.5391L668.2 189.63Z" fill="#B4A8C3"/>
<path d="M578.049 64.3694C596.798 75.1771 615.531 86.002 634.28 96.8438C628.246 100.321 628.195 105.998 634.28 109.51C589.861 135.148 545.441 160.804 501.022 186.443C495.005 182.982 485.187 182.931 479.085 186.443C460.335 175.618 441.603 164.81 422.853 153.968C428.87 150.491 428.956 144.814 422.853 141.302C467.273 115.664 511.692 90.008 556.112 64.3694C562.231 67.8811 572.066 67.8299 578.049 64.3694ZM553.947 140.024C568.827 131.432 567.736 117.351 551.68 109.544C542.118 104.89 529.896 103.731 519.345 105.384C511.232 106.629 501.857 109.936 496.505 116.141C491.238 122.227 491.477 129.421 497.17 135.404C508.658 147.439 537.055 149.775 553.947 140.024Z" fill="#61B77C"/>
<path d="M551.68 109.561C567.736 117.351 568.827 131.449 553.947 140.041C537.055 149.792 508.658 147.439 497.17 135.404C491.477 129.438 491.238 122.227 496.505 116.141C506.425 104.651 533.186 100.56 551.68 109.561Z" fill="#96CBA3"/>
<path d="M657.649 106.492L491.443 202.45V199.824L657.649 103.867V106.492Z" fill="#61B77C"/>
<path d="M491.443 199.824L399.655 146.842L565.861 50.8682L657.649 103.85L491.443 199.824ZM422.87 153.968C441.62 164.793 460.353 175.601 479.102 186.443C485.204 182.931 495.022 182.982 501.039 186.443C545.458 160.804 589.878 135.148 634.297 109.51C628.212 105.998 628.263 100.321 634.297 96.8438C615.548 86.019 596.815 75.1941 578.066 64.3693C572.083 67.8299 562.231 67.881 556.129 64.3693C511.709 90.0079 467.29 115.664 422.87 141.302C428.973 144.814 428.87 150.491 422.87 153.968Z" fill="#96CBA3"/>
<path d="M491.443 202.45L399.655 149.451V146.843L491.443 199.824V202.45Z" fill="#61B77C"/>
<path d="M491.443 199.824V202.45H495.244C495.244 202.45 632.644 123.369 660.155 107.481C659.916 107.157 657.649 106.475 657.649 106.475V103.85L491.443 199.824Z" fill="#B4A8C3" style="mix-blend-mode:multiply"/>
<path d="M631.383 164.895C631.383 160.974 631.383 157.071 631.383 153.133C631.383 153.798 631.451 154.462 631.57 155.11C633.292 164.691 647.337 172.191 664.382 172.191C682.023 172.191 696.443 164.179 697.33 154.122C697.364 153.934 697.364 153.729 697.364 153.525C697.364 157.326 697.364 161.111 697.364 164.895C697.381 171.68 691.108 177.987 680.898 181.38C670.433 184.891 657.478 184.789 647.166 181.141C637.314 177.663 631.383 171.492 631.383 164.895Z" fill="#9FA8AA"/>
<path d="M697.125 150.866C697.074 150.695 696.938 150.081 696.938 150.081C696.836 149.758 696.512 148.718 696.324 148.428V148.394C696.051 147.763 695.506 146.808 695.131 146.229C694.125 144.78 693.478 144.166 692.472 143.177C692.319 143.041 692.182 142.905 692.046 142.768C691.756 142.632 690.137 140.825 685.535 138.524C685.466 138.472 685.415 138.455 685.33 138.421C673.467 132.677 655.28 132.54 643.126 138.558C642.786 138.694 640.416 139.921 637.996 141.677C636.07 143.212 634.774 144.473 633.513 146.382C633.445 146.519 632.917 147.269 632.661 147.865C632.473 148.24 632.098 149.076 631.996 149.451C631.536 150.746 631.229 152.604 631.417 154.122C631.451 154.445 631.502 154.769 631.553 155.093C633.274 164.691 647.32 172.174 664.365 172.174C681.989 172.174 696.426 164.162 697.313 154.105C697.398 153.014 697.313 151.871 697.125 150.866ZM692.523 154.838V154.82C692.523 154.616 692.506 154.292 692.472 154.053C691.722 161.98 681.103 168.39 667.62 169.276C666.546 169.362 665.456 169.396 664.365 169.396C649.382 169.396 637.11 162.628 636.24 154.105C636.206 153.781 636.189 153.457 636.189 153.133C636.189 144.149 648.82 136.87 664.365 136.87C679.91 136.87 692.523 144.149 692.523 153.133C692.523 153.951 692.557 155.571 692.523 154.838Z" fill="#B4BBBF"/>
<path d="M692.523 154.838V154.821C692.523 154.616 692.506 154.292 692.472 154.053C691.722 161.98 681.103 168.39 667.62 169.276C666.546 169.362 665.455 169.396 664.365 169.396C649.382 169.396 637.11 162.628 636.24 154.105C636.206 153.781 636.189 153.457 636.189 153.133C636.189 144.149 648.819 136.87 664.365 136.87C679.91 136.87 692.523 144.149 692.523 153.133C692.523 153.951 692.557 155.571 692.523 154.838Z" fill="#FFD888"/>
<path d="M409.933 265.762C405.467 262.472 402.911 258.347 402.911 254.017H402.894C402.894 250.846 402.894 247.658 402.894 244.504C402.962 244.453 403.03 244.402 403.081 244.334C404.871 253.88 418.882 261.313 435.893 261.313C453.364 261.313 467.682 253.454 468.807 243.516C468.943 242.766 468.892 238.436 468.892 254.017C468.892 260.307 463.625 265.268 457.983 268.183C443.734 275.581 421.575 274.371 409.933 265.762Z" fill="#9FA8AA"/>
<path d="M464.051 242.254C464.051 242.578 464.051 242.68 464 243.209C463.472 237.771 458.29 233.032 450.722 230.321C446.529 228.821 441.586 227.918 436.302 227.884C421.183 227.747 408.638 234.549 407.786 243.209C407.769 243.038 407.735 242.493 407.735 242.237C407.735 233.253 420.365 225.974 435.91 225.974C451.438 225.974 464.051 233.27 464.051 242.254Z" fill="#E89510"/>
<path d="M409.933 265.762C404.172 263.563 398.019 259.25 397.456 253.13C396.826 249.192 399.655 245.118 402.894 242.595C402.894 245.766 402.911 250.846 402.911 254.016H402.928C402.911 258.346 405.467 262.472 409.933 265.762Z" fill="#FFD888"/>
<path d="M468.654 240.004C468.654 239.816 468.313 238.64 468.159 238.248C467.409 236.1 465.585 233.441 462.807 231.225C459.586 228.719 456.722 227.287 452.989 225.94C441.722 222.19 429.91 222.326 419.547 225.702C416.189 226.827 414.075 227.901 411.689 229.299V229.316C411.348 229.486 409.388 230.782 407.888 232.179C406.507 233.475 405.348 234.958 404.803 235.862C404.786 235.879 404.786 235.896 404.769 235.896V235.913C404.752 235.93 404.752 235.947 404.752 235.964C404.479 236.39 404.24 236.867 403.951 237.447V237.481C403.882 237.634 403.746 237.941 403.746 237.958H403.729C403.081 239.51 402.809 241.078 402.86 242.612C402.86 248.698 408.638 253.846 414.178 256.608C435.126 267.075 467.034 258.994 468.773 243.516C469.011 242.732 468.824 240.481 468.654 240.004Z" fill="#B4BBBF"/>
<path d="M450.722 230.321C446.529 228.821 441.586 227.918 436.302 227.884C421.183 227.747 408.638 234.549 407.786 243.209C407.786 243.226 407.837 243.601 407.854 243.72C408.638 249.09 413.905 252.977 418.899 255.193C422.632 256.932 428.87 258.5 435.91 258.5C450.893 258.5 463.165 251.732 464.017 243.192C463.472 237.771 458.307 233.032 450.722 230.321Z" fill="#FFD888"/>
<path d="M421.473 271.149C408.774 270.228 398.104 265.148 394.167 258.074C392.445 254.954 392.087 251.596 393.314 248.255C393.314 248.238 393.314 248.238 393.331 248.22C394.9 243.703 399.434 240.174 403.763 237.941C403.081 239.612 402.894 240.993 402.894 242.578C392.973 250.351 397.132 260.852 409.933 265.762C412.967 267.995 416.871 269.853 421.473 271.149Z" fill="#B4BBBF"/>
<path d="M394.167 258.074C398.104 265.148 408.774 270.228 421.473 271.149C434.597 274.763 448.711 272.99 457.983 268.166C457.898 268.2 457.796 268.251 457.711 268.302C453.875 277.831 438.143 284.156 421.319 282.877C404.837 281.633 392.564 273.518 392.581 263.989C392.581 260.068 392.581 256.165 392.581 252.227C392.581 254.085 393.076 256.079 394.167 258.074Z" fill="#9FA8AA"/>
<path d="M543.941 19.3994C562.691 30.2072 581.423 41.032 600.173 51.8738C598.349 55.1639 596.048 59.2552 595.69 62.8862C595.298 66.6194 597.003 69.5174 600.173 71.3414C574.333 93.0763 522.431 97.3892 466.915 136.751C460.966 133.307 451.097 133.784 444.978 138.626C426.228 127.801 407.496 116.993 388.746 106.151C394.848 101.327 394.763 95.0878 388.746 91.6103C444.484 52.0955 496.011 48.0553 522.004 26.2011C523.999 27.3433 526.351 27.957 528.686 28.0593C534.754 28.3661 540.515 25.5875 543.941 19.3994ZM519.823 93.7752C531.481 89.1726 533.118 81.331 526.249 74.3588C513.277 61.2156 476.92 56.8175 463.182 67.8127C460.165 70.2164 458.256 73.4553 458.648 77.3079C459.398 84.3483 467.171 89.5817 473.699 92.3774C488.017 98.429 507.721 98.5313 519.823 93.7752Z" fill="#61B77C"/>
<path d="M531.737 0L623.525 52.999L621.752 53.1353C510.584 -11.0635 533.544 2.2502 529.965 0.136376L531.737 0Z" fill="#61B77C"/>
<path d="M365.122 100.663C442.558 35.9864 515.033 48.1409 529.965 0.136719L530.374 0.375376C531.584 0.972019 525.874 -2.21576 621.752 53.1357C606.821 101.14 534.328 88.9683 456.909 153.644L365.122 100.663ZM600.173 51.8742C581.423 41.0494 562.691 30.2246 543.941 19.3998C540.515 25.5708 534.754 28.3665 528.686 28.0596C526.368 27.9403 523.999 27.3266 522.004 26.2015C496.011 48.0557 444.484 52.0958 388.746 91.6106C394.763 95.0882 394.848 101.344 388.746 106.152C407.496 116.976 426.228 127.784 444.978 138.626C451.097 133.785 460.966 133.307 466.915 136.751C522.431 97.3895 574.333 93.0596 600.173 71.3418C597.003 69.5178 595.298 66.6368 595.69 62.8865C596.048 59.2555 598.349 55.1643 600.173 51.8742Z" fill="#96CBA3"/>
<path d="M526.249 74.3418C533.135 81.314 531.499 89.1726 519.823 93.7582C507.704 98.5143 488.017 98.4121 473.682 92.3433C467.153 89.5476 459.381 84.2972 458.631 77.2739C458.239 73.4212 460.148 70.1823 463.165 67.7787C476.903 56.8005 513.277 61.2156 526.249 74.3418Z" fill="#96CBA3"/>
<path d="M623.525 52.999C607.673 103.969 534.942 90.775 457.318 155.588L456.909 153.627C534.345 88.951 606.821 101.123 621.752 53.1184L623.525 52.999Z" fill="#61B77C"/>
<path d="M457.319 155.605L365.531 102.589L365.122 100.662L456.909 153.644L457.319 155.605Z" fill="#61B77C"/>
<path d="M592.776 84.7405C585.003 88.4567 578.492 91.7297 561.106 97.9178C532.93 107.958 501.942 120.727 477.79 137.859C472.199 141.831 456.927 153.644 456.927 153.644C456.927 153.644 443.427 145.683 425.274 135.199C414.28 128.841 403.269 122.499 392.275 116.141C390.502 117.027 457.336 155.605 457.336 155.605C457.336 155.605 497.391 150.047 515.936 138.643C533.016 128.142 575.049 97.1677 637.57 80.5128C640.144 79.831 642.428 79.132 642.632 78.9275C642.837 78.7059 637.826 75.5692 630.905 71.5802C624.241 67.7447 618.599 64.0796 618.599 64.0796C618.599 64.0796 622.212 58.3007 623.542 53.0161L621.769 53.1525C621.752 53.1354 617.474 72.961 592.776 84.7405Z" fill="#B4A8C3" style="mix-blend-mode:multiply"/>
<path d="M626.252 72.8587C626.047 72.8416 625.86 72.8416 625.655 72.8246C625.689 72.5518 625.809 71.5802 625.928 71.3415C626.184 70.6255 626.252 72.1086 626.252 72.8587Z" fill="#9FB3C0"/>
<path d="M638.814 78.433C639.274 78.5524 639.547 78.5183 639.411 78.3819C639.172 78.1262 638.899 78.075 638.286 78.1773C638.115 78.1944 638.354 78.3137 638.814 78.433Z" fill="#B4A8C3"/>
<path d="M298.442 78.7399C298.442 74.8191 298.442 70.9154 298.442 66.9775C298.442 67.6424 298.51 68.3072 298.629 68.955C300.351 78.5354 314.396 86.036 331.441 86.036C349.082 86.036 363.503 78.024 364.389 67.9663C364.423 67.7787 364.423 67.5742 364.423 67.3696C364.423 71.1711 364.423 74.9555 364.423 78.7399C364.44 85.5246 358.167 91.832 347.958 95.2243C337.492 98.736 324.538 98.6337 314.225 94.9857C304.373 91.5251 298.442 85.3541 298.442 78.7399Z" fill="#9FA8AA"/>
<path d="M364.201 64.7274C364.15 64.5569 364.014 63.9432 364.014 63.9432C363.912 63.6194 363.588 62.5795 363.4 62.2897V62.2556C363.128 61.6249 362.582 60.6702 362.207 60.0906C361.202 58.6417 360.554 58.028 359.548 57.0392C359.395 56.9029 359.258 56.7665 359.122 56.6301C358.832 56.4937 357.213 54.6868 352.611 52.3854C352.543 52.3343 352.492 52.3172 352.406 52.2831C340.543 46.5383 322.356 46.4019 310.203 52.4195C309.862 52.5559 307.493 53.7833 305.072 55.5391C303.146 57.0733 301.851 58.3348 300.589 60.2441C300.521 60.3804 299.993 61.1305 299.737 61.7271C299.55 62.1022 299.175 62.9375 299.072 63.3125C298.612 64.6081 298.305 66.4662 298.493 67.9834C298.527 68.3073 298.578 68.6312 298.629 68.9551C300.351 78.5525 314.396 86.0361 331.441 86.0361C349.065 86.0361 363.503 78.024 364.389 67.9663C364.474 66.8753 364.389 65.7332 364.201 64.7274ZM359.599 68.6993C359.599 68.4777 359.582 68.1538 359.548 67.9152C358.798 75.842 348.179 82.2517 334.696 83.1381C333.623 83.2234 332.532 83.2574 331.441 83.2574C316.458 83.2574 304.186 76.4898 303.317 67.9663C303.282 67.6424 303.265 67.3185 303.265 66.9947C303.265 58.0109 315.896 50.7319 331.441 50.7319C346.986 50.7319 359.599 58.0109 359.599 66.9947C359.599 67.8129 359.633 69.4324 359.599 68.6993Z" fill="#B4BBBF"/>
<path d="M359.599 68.6994C359.599 68.4778 359.582 68.1539 359.548 67.9153C358.798 75.8421 348.179 82.2517 334.696 83.1382C333.623 83.2234 332.532 83.2575 331.441 83.2575C316.458 83.2575 304.186 76.4899 303.317 67.9664C303.282 67.6425 303.265 67.3186 303.265 66.9947C303.265 58.011 315.896 50.7319 331.441 50.7319C346.986 50.7319 359.599 58.011 359.599 66.9947C359.599 67.813 359.633 69.4324 359.599 68.6994Z" fill="#FFD888"/>
</g>
<defs>
<linearGradient id="paint0_linear_110_19" x1="432.207" y1="313.624" x2="65.3972" y2="105.173" gradientUnits="userSpaceOnUse">
<stop stop-color="#0869A6"/>
<stop offset="0.5832" stop-color="#057EA6"/>
<stop offset="1" stop-color="#0388A6"/>
</linearGradient>
<linearGradient id="paint1_linear_110_19" x1="414.431" y1="350.566" x2="322.125" y2="18.3375" gradientUnits="userSpaceOnUse">
<stop stop-color="#0869A6"/>
<stop offset="0.1542" stop-color="#067CB3"/>
<stop offset="0.5304" stop-color="#03A7CF"/>
<stop offset="0.8251" stop-color="#01C1E1"/>
<stop offset="1" stop-color="#00CBE7"/>
</linearGradient>
<linearGradient id="paint2_linear_110_19" x1="76.7641" y1="98.7747" x2="276.166" y2="444.101" gradientUnits="userSpaceOnUse">
<stop stop-color="#0869A6"/>
<stop offset="1" stop-color="#072359"/>
</linearGradient>
<linearGradient id="paint3_linear_110_19" x1="290.384" y1="222.131" x2="310.446" y2="256.873" gradientUnits="userSpaceOnUse">
<stop offset="0.6187" stop-color="#00CBE7" stop-opacity="0"/>
<stop offset="0.9471" stop-color="#00CBE7"/>
</linearGradient>
<linearGradient id="paint4_linear_110_19" x1="63.0253" y1="214.542" x2="88.4059" y2="228.913" gradientUnits="userSpaceOnUse">
<stop stop-color="#0869A6"/>
<stop offset="1" stop-color="#072359"/>
</linearGradient>
<linearGradient id="paint5_linear_110_19" x1="96.3123" y1="233.763" x2="121.693" y2="248.133" gradientUnits="userSpaceOnUse">
<stop stop-color="#0869A6"/>
<stop offset="1" stop-color="#072359"/>
</linearGradient>
<clipPath id="clip0_110_19">
<rect width="705" height="390" fill="white"/>
</clipPath>
</defs>
</svg>
