<svg width="28" height="20" viewBox="0 0 28 20" fill="none" xmlns="http://www.w3.org/2000/svg">
<path d="M28 1C28 0.447715 27.5523 0 27 0H1C0.447716 0 0 0.447715 0 1C0 1.55228 0.447716 2 1 2H27C27.5523 2 28 1.55228 28 1Z" fill="white"/>
<path d="M28 19C28 18.4477 27.5523 18 27 18H11C10.4477 18 10 18.4477 10 19C10 19.5523 10.4477 20 11 20H27C27.5523 20 28 19.5523 28 19Z" fill="white"/>
<path d="M28 10C28 9.44772 27.5523 9 27 9H1C0.447716 9 0 9.44772 0 10C0 10.5523 0.447716 11 1 11H27C27.5523 11 28 10.5523 28 10Z" fill="white"/>
</svg>
