<svg width="132" height="78" viewBox="0 0 132 78" fill="none" xmlns="http://www.w3.org/2000/svg">
<g clip-path="url(#clip0_704_169)">
<path d="M49.73 77.22C48.98 77.08 48.22 76.97 47.47 76.8C41.84 75.49 38.36 71.71 37.52 65.99C37.4 65.16 37.3 64.32 37.3 63.49C37.28 57.83 37.28 52.16 37.29 46.5C37.29 44.52 37.69 42.61 38.43 40.78C39.88 37.17 42.52 34.83 46.22 33.72C50.27 32.51 54.36 32.51 58.42 33.62C63.4 34.98 66.78 39.03 67.42 44.22C67.57 45.47 67.64 46.72 67.64 47.98C67.64 53.15 67.67 58.33 67.63 63.5C67.57 71.15 63.26 76.02 55.68 77.08C55.51 77.1 55.34 77.17 55.18 77.22C53.37 77.22 51.55 77.22 49.73 77.22ZM57.02 55.19C57.02 52.95 57.02 50.72 57.02 48.48C57.02 47.53 56.84 46.6 56.51 45.71C56.21 44.88 55.66 44.27 54.86 43.91C51.38 42.33 48.27 44.11 47.91 47.87C47.89 48.11 47.88 48.36 47.88 48.6C47.88 52.97 47.88 57.34 47.89 61.71C47.89 62.66 48.08 63.59 48.39 64.48C48.88 65.86 49.91 66.53 51.31 66.67C51.86 66.72 52.43 66.71 52.99 66.7C55.27 66.64 56.4 65.72 56.81 63.46C57.32 60.72 56.94 57.94 57.02 55.19Z" fill="#081047"/>
<path d="M84.56 77.22C83.67 77.03 82.78 76.88 81.9 76.65C76.51 75.23 73.51 71.65 72.54 66.25C72.35 65.21 72.31 64.17 72.31 63.12C72.32 58.22 72.37 53.33 72.29 48.43C72.26 46.32 72.35 44.25 72.93 42.21C74.08 38.16 76.6 35.32 80.58 33.94C84.83 32.46 89.18 32.39 93.48 33.65C98.81 35.21 101.93 39.17 102.47 44.7C102.5 45.01 102.55 45.32 102.59 45.63C102.77 46.91 102.27 47.75 101 48.06C98.83 48.58 96.64 49.04 94.45 49.49C93.35 49.71 92.42 49.06 92.09 47.91C91.92 47.31 91.83 46.68 91.66 46.08C91.28 44.76 90.4 43.92 89.05 43.62C88.01 43.39 86.96 43.38 85.93 43.62C84.06 44.06 83.07 45.2 82.99 47.45C82.8 52.52 82.73 57.59 83.01 62.65C83.21 66.35 86.88 68.05 90.11 66.13C91.24 65.46 91.59 64.32 91.82 63.14C92.26 60.84 93.02 60.35 95.32 60.88C97.13 61.29 98.94 61.67 100.74 62.09C102.33 62.46 102.77 63.2 102.58 64.83C102.18 68.3 101.06 71.42 98.41 73.85C96.4 75.69 93.95 76.55 91.35 77.06C91.11 77.11 90.88 77.17 90.64 77.23C88.62 77.22 86.59 77.22 84.56 77.22Z" fill="#081047"/>
<path d="M37.56 0C39.42 0.51 41.26 1.04 42.66 2.51C44.18 4.1 44.96 6.04 45.12 8.17C45.46 12.7 45.49 17.26 45.13 21.79C44.77 26.38 41.44 29.54 36.79 29.83C34.49 29.97 32.18 30.04 29.97 29.1C26.45 27.62 24.88 24.8 24.74 21.19C24.59 17 24.63 12.8 24.71 8.61C24.79 4.44 27.29 1.4 31.31 0.33C31.65 0.24 31.97 0.12 32.31 0.02C34.06 0 35.81 0 37.56 0ZM37.93 14.9H37.92C37.92 13.19 37.98 11.48 37.9 9.77C37.82 7.94 36.91 7.17 35.07 7.15C33.11 7.13 32.03 7.94 31.99 9.76C31.91 13.18 31.94 16.6 31.99 20.02C32 20.89 32.25 21.78 33.07 22.3C35.16 23.64 37.79 22.37 37.92 19.93C38 18.26 37.93 16.58 37.93 14.9Z" fill="#081047"/>
<path d="M61.06 0C61.53 0.13 62.01 0.24 62.47 0.38C66.87 1.67 68.55 5.02 68.78 8.81C68.82 9.46 68.47 9.97 67.8 10.13C66.31 10.49 64.81 10.86 63.3 11.14C62.28 11.33 61.77 10.7 61.53 9.77C60.92 7.47 60.32 7.03 58.01 7.16C56.74 7.23 56 7.81 55.69 9.04C55.52 9.72 55.43 10.41 55.44 11.12C55.45 13.64 55.44 16.16 55.45 18.67C55.45 19.09 55.48 19.51 55.53 19.92C55.86 22.64 57.27 22.96 59.85 22.51C60.87 22.33 61.2 21.39 61.4 20.46C61.78 18.7 62.21 18.42 63.94 18.8C65.1 19.05 66.27 19.29 67.42 19.57C68.56 19.85 68.86 20.31 68.74 21.44C68.16 26.79 64.85 29.8 59.46 29.86C57.99 29.88 56.53 29.93 55.08 29.56C51.26 28.6 48.95 26.02 48.4 22.11C48.1 20.02 48.22 17.92 48.23 15.83C48.25 13.28 48.03 10.72 48.37 8.18C48.98 3.53 51.1 1.2 55.63 0.13C55.77 0.11 55.9 0.05 56.03 0C57.7 0 59.38 0 61.06 0Z" fill="#081047"/>
<path d="M0 1.26001C0.39 0.740006 0.93 0.580006 1.57 0.590006C8.25 0.600006 14.92 0.590006 21.6 0.590006C22.86 0.590006 23.29 1.02001 23.33 2.30001C23.36 3.59001 23.36 4.89001 23.33 6.18001C23.31 7.40001 22.88 7.82001 21.67 7.83001C20.06 7.84001 18.45 7.83001 16.85 7.83001C15.46 7.84001 15.18 8.10001 15.18 9.48001C15.17 15.35 15.18 21.23 15.18 27.1C15.18 28.92 14.87 29.22 13.04 29.23C11.99 29.23 10.94 29.24 9.89 29.23C8.39 29.21 7.96 28.79 7.96 27.27C7.95 21.64 7.95 16.01 7.95 10.38C7.95 10.03 7.95 9.68001 7.95 9.33001C7.93 8.03001 7.73 7.83001 6.39 7.82001C4.78 7.82001 3.17 7.81001 1.56 7.83001C0.97 7.84001 0.45 7.72001 0 7.34001C0 5.32001 0 3.29001 0 1.26001Z" fill="#081047"/>
<path d="M17.81 33.93C22.74 33.93 27.67 33.93 32.6 33.93C34.58 33.93 35.1 34.44 35.11 36.4C35.12 38.36 35.12 40.32 35.11 42.27C35.1 43.93 34.49 44.52 32.81 44.53C30.57 44.54 28.34 44.53 26.1 44.53C23.18 44.53 23.13 44.58 23.13 47.55C23.13 56.15 23.13 64.75 23.13 73.35C23.13 73.8 23.13 74.26 23.06 74.71C22.9 75.66 22.31 76.21 21.34 76.22C19 76.24 16.66 76.25 14.31 76.21C13.25 76.19 12.65 75.54 12.56 74.49C12.53 74.11 12.54 73.72 12.54 73.34C12.54 64.71 12.54 56.07 12.54 47.44C12.54 47.09 12.55 46.74 12.53 46.39C12.47 45.06 11.98 44.55 10.66 44.54C8.10997 44.52 5.55997 44.54 2.99997 44.53C1.09997 44.53 0.489973 43.97 0.439973 42.04C0.399973 40.19 0.399973 38.33 0.439973 36.48C0.479973 34.46 1.03997 33.94 3.02997 33.94C7.95997 33.93 12.89 33.93 17.81 33.93Z" fill="#081047"/>
<path d="M131.53 34C131.52 34.55 131.11 34.65 130.76 34.76C127.45 35.77 124.14 36.77 120.83 37.77C117.92 38.65 115 39.49 112.11 40.41C111.34 40.65 111.02 40.44 110.83 39.71C110.47 38.31 109.83 37.02 109.14 35.77C108.76 35.08 108.93 34.73 109.58 34.36C114.77 31.4 119.94 28.41 125.12 25.44C127.49 24.08 127.13 23.67 128.59 26.52C129.7 28.7 130.62 30.97 131.35 33.31C131.41 33.56 131.47 33.8 131.53 34Z" fill="#F9AAC2"/>
<path d="M104.54 29.47C104.24 29.46 104.08 29.27 103.89 29.12C102.83 28.26 101.74 27.44 100.55 26.78C99.86 26.4 99.7 26.03 100.11 25.29C102.35 21.18 104.55 17.05 106.77 12.93C107.61 11.36 108.48 9.81001 109.29 8.22001C109.63 7.55001 109.96 7.36001 110.66 7.77001C113.42 9.36001 116.03 11.15 118.41 13.29C118.94 13.76 118.89 14.09 118.44 14.58C115.45 17.81 112.49 21.06 109.51 24.3C108.12 25.82 106.73 27.34 105.34 28.86C105.1 29.1 104.91 29.42 104.54 29.47Z" fill="#F9AAC2"/>
<path d="M85.95 21.02C86.36 16.78 86.78 12.54 87.18 8.29999C87.37 6.27999 87.55 4.26999 87.68 2.24999C87.73 1.46999 87.93 1.12999 88.8 1.18999C91.67 1.39999 94.46 2.01999 97.26 2.58999C98.11 2.75999 97.93 3.32999 97.79 3.87999C97.05 6.82999 96.3 9.76999 95.56 12.72C94.76 15.9 93.96 19.08 93.17 22.27C92.86 23.54 92.76 23.56 91.45 23.29C90.12 23.01 88.77 22.84 87.42 22.67C85.93 22.47 85.92 22.49 85.95 21.02Z" fill="#F9AAC2"/>
</g>
<defs>
<clipPath id="clip0_704_169">
<rect width="131.53" height="77.22" fill="white"/>
</clipPath>
</defs>
</svg>
