<svg width="26" height="41" viewBox="0 0 26 41" fill="none" xmlns="http://www.w3.org/2000/svg">
<path d="M1.52084 8.77931e-05H24.3759C24.5847 -0.00302903 24.7862 0.0769544 24.9361 0.222438C25.086 0.367922 25.1719 0.566985 25.175 0.775824V1.83736C25.1723 2.04645 25.0865 2.24589 24.9366 2.39169C24.7867 2.53748 24.585 2.61767 24.3759 2.61455H1.52084C1.31175 2.61767 1.11001 2.53748 0.960109 2.39169C0.810208 2.24589 0.724459 2.04645 0.721771 1.83736V0.777282C0.724842 0.568443 0.81076 0.36938 0.960619 0.223896C1.11048 0.0784126 1.312 -0.00157088 1.52084 0.00154594V8.77931e-05Z" fill="#D888A2"/>
<path d="M2.36658 2.61462H23.5302V16.244C23.5302 16.7689 23.0796 16.9628 22.6509 17.2136L12.925 22.8071L3.24584 17.2136C2.81715 16.9628 2.36658 16.7689 2.36658 16.244L2.36658 2.61462Z" fill="#161547"/>
<path fill-rule="evenodd" clip-rule="evenodd" d="M23.5302 2.61462H17.839V19.9885L22.6509 17.2136C22.6962 17.1871 22.7417 17.1613 22.7869 17.1356C23.1697 16.9182 23.5302 16.7135 23.5302 16.244V2.61462ZM8.05774 2.61467H2.36658V16.244C2.36658 16.7135 2.72702 16.9182 3.10987 17.1357C3.15506 17.1613 3.20057 17.1872 3.24584 17.2137L8.05774 19.9987V2.61467Z" fill="#78CCF2"/>
<path d="M12.9484 40.5119C20.0996 40.5119 25.8968 34.6397 25.8968 27.3959C25.8968 20.152 20.0996 14.2798 12.9484 14.2798C5.79719 14.2798 0 20.152 0 27.3959C0 34.6397 5.79719 40.5119 12.9484 40.5119Z" fill="#D888A2"/>
<path d="M12.9484 38.7082C19.1163 38.7082 24.1163 33.6435 24.1163 27.3958C24.1163 21.1482 19.1163 16.0835 12.9484 16.0835C6.78047 16.0835 1.7804 21.1482 1.7804 27.3958C1.7804 33.6435 6.78047 38.7082 12.9484 38.7082Z" fill="#D2B309"/>
<path d="M12.9484 38.3421C18.9174 38.3421 23.7562 33.4413 23.7562 27.3958C23.7562 21.3503 18.9174 16.4495 12.9484 16.4495C6.97939 16.4495 2.14056 21.3503 2.14056 27.3958C2.14056 33.4413 6.97939 38.3421 12.9484 38.3421Z" fill="#E3C101"/>
<path d="M10.942 25.2159C10.5249 25.2159 10.1764 25.2494 9.75941 25.2392C9.00836 25.2438 8.25871 25.3047 7.51678 25.4215C7.36783 25.4564 7.22651 25.5181 7.09975 25.6037C6.96723 25.686 6.88007 25.8248 6.86353 25.98V26.0951C6.91042 26.3496 7.03229 26.5842 7.21348 26.7688L9.80462 28.7883L9.31905 30.4331C9.24031 30.7058 9.16157 30.9683 9.08283 31.2541C8.94729 31.6305 8.88589 32.0296 8.90202 32.4294C8.88964 32.7488 9.13678 33.0187 9.45612 33.0345C9.8011 33.0102 10.1287 32.874 10.3893 32.6466C10.6722 32.4643 10.9201 32.2821 11.1913 32.0881L12.1712 31.4028C12.2397 31.3532 12.3112 31.3066 12.3855 31.2657C12.9032 30.9012 12.6553 30.9012 13.3771 31.3795C13.8393 31.6886 15.3718 32.807 15.5745 32.8974C16.149 33.1497 16.69 33.0461 16.69 32.4075C16.6815 31.8796 16.5782 31.3576 16.3852 30.8662L15.7772 28.7883C15.8967 28.6716 16.0288 28.5685 16.1709 28.4807L18.1438 26.9394C18.4907 26.7379 18.7082 26.3708 18.7183 25.9697C18.6897 25.8222 18.605 25.6916 18.4821 25.6052C18.065 25.2961 17.422 25.3763 16.9831 25.2961C16.8256 25.2611 14.774 25.2159 14.6282 25.2159C14.6165 25.1021 14.3453 24.3935 14.2782 24.1995L13.5346 22.1902C12.9484 20.9916 12.2164 21.5968 11.8548 22.6714L10.942 25.2159Z" fill="#FFF2B5"/>
<path d="M15.9915 18.1381C20.1371 19.1384 23.0971 22.8406 23.2006 27.1567C23.3027 31.4714 20.5235 35.3151 16.4304 36.518C18.9443 34.5758 20.6007 31.2541 20.6007 27.4877C20.6007 23.5157 18.7518 20.0337 15.9915 18.1381L15.9915 18.1381Z" fill="white" fill-opacity="0.2"/>
<path d="M2.36658 2.61462H23.5302V3.45889H2.36658V2.61462Z" fill="#1A1A1A" fill-opacity="0.149"/>
<path d="M12.9484 14.2798C16.207 14.2789 19.3434 15.5199 21.7192 17.7502L22.212 17.4658C19.7926 14.9288 16.4424 13.4894 12.9367 13.4807C9.43094 13.4805 6.07704 14.9115 3.65121 17.4425L4.18052 17.7473C6.55601 15.5188 9.69121 14.2789 12.9484 14.2798Z" fill="#1A1A1A" fill-opacity="0.102"/>
</svg>
