<svg width="767" height="754" viewBox="0 0 767 754" fill="none" xmlns="http://www.w3.org/2000/svg">
<path d="M764.369 221.784L653.611 660.793C638.047 722.484 578.005 762.123 515.16 752.198L47.7513 678.379C-23.6396 667.104 -69.9681 596.999 -52.3506 526.903L56.5986 93.4206C72.4515 30.3455 134.668 -9.48722 198.587 2.51486L283.581 18.474C354.049 31.7055 398.308 102.161 379.64 171.387L271.87 571.02C266.007 592.76 257.708 611.535 269.783 630.541V630.541C283.431 652.022 315.71 606.053 322.41 581.501L434.367 171.226C451.192 109.57 512.434 71.0717 575.289 82.6383L686.754 103.15C741.758 113.272 777.125 167.33 764.369 221.784V221.784Z" fill="#FFF2F6"/>
</svg>
