<svg width="721" height="755" viewBox="0 0 721 755" fill="none" xmlns="http://www.w3.org/2000/svg">
<path d="M2.72352 532.749L113.481 93.7398C129.045 32.049 189.087 -7.59074 251.932 2.33452L719.341 76.1536C790.732 87.4285 837.06 157.534 819.443 227.629L710.494 661.112C694.641 724.187 632.424 764.02 568.505 752.018L483.511 736.059C413.043 722.827 368.784 652.371 387.452 583.145L495.222 183.513C501.085 161.773 509.384 142.997 497.309 123.992C483.661 102.511 451.382 148.48 444.682 173.032L332.725 583.306C315.9 644.962 254.658 683.461 191.803 671.894L80.3385 651.383C25.3342 641.261 -10.0329 587.203 2.72352 532.749Z" fill="#FFF2F6"/>
</svg>
