<svg width="618" height="754" viewBox="0 0 618 754" fill="none" xmlns="http://www.w3.org/2000/svg">
<path d="M615.369 532.282L504.611 93.2724C489.047 31.5816 429.005 -8.05809 366.16 1.86717L-101.249 75.6862C-172.64 86.9612 -218.968 157.066 -201.351 227.162L-92.4014 660.645C-76.5485 723.72 -14.3324 763.553 49.5873 751.55L134.581 735.591C205.049 722.36 249.308 651.904 230.64 582.678L122.87 183.046C117.007 161.306 108.708 142.53 120.783 123.525C134.431 102.044 166.71 148.012 173.41 172.565L285.367 582.839C302.192 644.495 363.434 682.994 426.289 671.427L537.754 650.916C592.758 640.794 628.125 586.735 615.369 532.282Z" fill="#FFF2F6"/>
</svg>
